<?xml version="1.0" encoding="UTF-8" standalone="no"?>
<svg
   width="143"
   height="40"
   viewBox="0 0 143 40"
   fill="none"
   version="1.1"
   id="svg14"
   sodipodi:docname="parasol-logo.svg"
   inkscape:version="1.4 (e7c3feb100, 2024-10-09)"
   xmlns:inkscape="http://www.inkscape.org/namespaces/inkscape"
   xmlns:sodipodi="http://sodipodi.sourceforge.net/DTD/sodipodi-0.dtd"
   xmlns="http://www.w3.org/2000/svg"
   xmlns:svg="http://www.w3.org/2000/svg">
  <sodipodi:namedview
     id="namedview1"
     pagecolor="#767676"
     bordercolor="#666666"
     borderopacity="1.0"
     inkscape:showpageshadow="2"
     inkscape:pageopacity="0.0"
     inkscape:pagecheckerboard="0"
     inkscape:deskcolor="#d1d1d1"
     showgrid="false"
     inkscape:zoom="7.3496503"
     inkscape:cx="71.5"
     inkscape:cy="20.000951"
     inkscape:window-width="1920"
     inkscape:window-height="1011"
     inkscape:window-x="0"
     inkscape:window-y="32"
     inkscape:window-maximized="1"
     inkscape:current-layer="svg14" />
  <defs
     id="defs14" />
  <path
     d="M 20,5.00002 V 1.66669"
     stroke="#ffffff"
     stroke-width="3"
     stroke-linecap="round"
     stroke-linejoin="round"
     id="path1" />
  <path
     d="m 30,33.3333 c 0,2.7617 -2.2383,5 -5,5 -2.7617,0 -5,-2.2383 -5,-5 V 25"
     stroke="#ffffff"
     stroke-width="3"
     stroke-linecap="round"
     stroke-linejoin="round"
     id="path2" />
  <path
     d="m 19.9998,5 c -4.935,2.45583 -8.3333,7.4475 -8.3333,13.3333 0,0.5659 0,0.8334 0,1.6667"
     stroke="#ffffff"
     stroke-width="3"
     stroke-linecap="round"
     stroke-linejoin="round"
     id="path3" />
  <path
     d="m 20,5 c 4.935,2.45583 8.3333,7.4475 8.3333,13.3333 0,0.5659 0,0.8334 0,1.6667"
     stroke="#ffffff"
     stroke-width="3"
     stroke-linecap="round"
     stroke-linejoin="round"
     id="path4" />
  <path
     d="M 36.6666,20 C 35.8299,11.5775 28.6416,5 19.9999,5 11.3583,5 4.16992,11.5775 3.33325,20 Z"
     stroke="#ffffff"
     stroke-width="3"
     stroke-linecap="round"
     stroke-linejoin="round"
     id="path5" />
  <path
     d="M 20,20 V 5"
     stroke="#ffffff"
     stroke-width="3"
     stroke-linecap="round"
     stroke-linejoin="round"
     id="path6" />
  <path
     d="m 130.835,2.236 v -0.96 h 4.944 v 0.96 h -1.944 v 5.136 h -1.056 V 2.236 Z m 10.536,-0.96 h 1.2 v 6.096 h -1.032 V 5.356 c 0,-0.528 0,-1.2 0.024,-1.944 -0.048,0.12 -0.096,0.264 -0.168,0.408 l -1.416,3.552 h -0.84 l -1.44,-3.552 -0.168,-0.432 c 0.024,0.744 0.024,1.44 0.024,1.968 v 2.016 h -1.032 V 1.276 h 1.2 l 1.368,3.384 c 0.168,0.432 0.336,0.888 0.456,1.272 l 0.504,-1.368 z"
     fill="#ffffff"
     id="path7" />
  <path
     d="M 125.385,18.364 V 1.276 h 3.744 v 17.088 z"
     fill="#ffffff"
     id="path8" />
  <path
     d="m 117.253,18.652 c -3.96,0 -6.504,-2.544 -6.504,-6.48 0,-3.936 2.544,-6.48 6.504,-6.48 3.936,0 6.48,2.544 6.48,6.48 0,3.936 -2.544,6.48 -6.48,6.48 z m 0,-3 c 1.656,0 2.688,-1.128 2.688,-3.48 0,-2.352 -1.032,-3.48 -2.688,-3.48 -1.68,0 -2.712,1.128 -2.712,3.48 0,2.352 1.032,3.48 2.712,3.48 z"
     fill="#ffffff"
     id="path9" />
  <path
     d="m 103.992,18.724 c -3.792,0 -5.736,-1.224 -5.952,-4.296 h 3.648 c 0.144,1.344 0.816,1.8 2.376,1.8 1.512,0 2.088,-0.456 2.088,-1.2 0,-0.744 -0.456,-1.104 -2.136,-1.368 l -1.608,-0.264 c -2.616,-0.408 -4.176,-1.584 -4.176,-3.792 0,-2.472 1.944,-3.912 5.568,-3.912 4.176,0 5.64,1.824 5.76,4.248 h -3.48 c -0.048,-1.344 -0.936,-1.752 -2.28,-1.752 -1.344,0 -1.896,0.456 -1.896,1.176 0,0.744 0.6,1.056 1.8,1.248 l 1.848,0.264 c 2.928,0.456 4.344,1.632 4.344,3.84 0,2.568 -2.184,4.008 -5.904,4.008 z"
     fill="#ffffff"
     id="path10" />
  <path
     d="m 97.1416,18.364 h -3.768 c -0.168,-0.312 -0.288,-0.84 -0.312,-1.392 -0.792,1.056 -2.136,1.68 -3.96,1.68 -2.592,0 -4.512,-1.32 -4.512,-3.792 0,-2.136 1.272,-3.552 4.848,-3.864 l 1.944,-0.168 c 1.056,-0.12 1.608,-0.432 1.608,-1.224 0,-0.744 -0.408,-1.248 -1.896,-1.248 -1.464,0 -2.064,0.36 -2.184,1.632 h -3.72 c 0.192,-2.736 1.944,-4.296 5.928,-4.296 3.888,0 5.52,1.464 5.52,3.816 v 6.576 c 0,0.912 0.168,1.8 0.504,2.28 z m -6.912,-2.232 c 1.44,0 2.76,-0.696 2.76,-2.64 V 12.58 c -0.264,0.288 -0.672,0.408 -1.248,0.48 l -1.536,0.168 c -1.272,0.144 -1.8,0.624 -1.8,1.488 0,0.864 0.648,1.416 1.824,1.416 z"
     fill="#ffffff"
     id="path11" />
  <path
     d="m 83.5302,5.788 c 0.288,0 0.552,0.024 0.816,0.048 v 3.408 h -0.96 c -2.088,0 -3.288,1.032 -3.288,3.36 v 5.76 h -3.744 V 5.98 h 3.648 v 2.304 c 0.528,-1.536 1.68,-2.496 3.528,-2.496 z"
     fill="#ffffff"
     id="path12" />
  <path
     d="m 74.876,18.364 h -3.768 c -0.168,-0.312 -0.288,-0.84 -0.312,-1.392 -0.792,1.056 -2.136,1.68 -3.96,1.68 -2.592,0 -4.512,-1.32 -4.512,-3.792 0,-2.136 1.272,-3.552 4.848,-3.864 l 1.944,-0.168 c 1.056,-0.12 1.608,-0.432 1.608,-1.224 0,-0.744 -0.408,-1.248 -1.896,-1.248 -1.464,0 -2.064,0.36 -2.184,1.632 h -3.72 c 0.192,-2.736 1.944,-4.296 5.928,-4.296 3.888,0 5.52,1.464 5.52,3.816 v 6.576 c 0,0.912 0.168,1.8 0.504,2.28 z m -6.912,-2.232 c 1.44,0 2.76,-0.696 2.76,-2.64 V 12.58 c -0.264,0.288 -0.672,0.408 -1.248,0.48 l -1.536,0.168 c -1.272,0.144 -1.8,0.624 -1.8,1.488 0,0.864 0.648,1.416 1.824,1.416 z"
     fill="#ffffff"
     id="path13" />
  <path
     d="m 55.776,1.276 c 4.032,0 6.312,2.304 6.312,5.76 0,3.456 -2.28,5.76 -6.312,5.76 h -3.72 v 5.568 H 48 V 1.276 Z m -0.264,8.088 c 1.56,0 2.52,-0.792 2.52,-2.328 0,-1.512 -0.96,-2.328 -2.52,-2.328 H 48 v 4.656 z"
     fill="#ffffff"
     id="path14" />
  <text
     xml:space="preserve"
     style="font-style:normal;font-variant:normal;font-weight:normal;font-stretch:normal;font-size:21.3333px;line-height:1.25;font-family:'Red Hat Display';-inkscape-font-specification:'Red Hat Display, Normal';font-variant-ligatures:normal;font-variant-caps:normal;font-variant-numeric:normal;font-variant-east-asian:normal;letter-spacing:0px;word-spacing:0px;fill:#ffffff"
     x="56.647976"
     y="37.984375"
     id="text15"><tspan
       id="tspan15"
       x="56.647976"
       y="37.984375">AI Studio</tspan></text>
</svg>
